<svg version="1.2" xmlns="http://www.w3.org/2000/svg" viewBox="0 0 1024 1024" width="1024" height="1024">
	<title>2025 09 04 - KALMM Logo v3</title>
	<style>
		.s0 { fill: #384d60 } 
		.s1 { fill: #0b3358 } 
		.s2 { fill: #205c8e } 
		.s3 { fill: #0b3357 } 
		.s4 { fill: #94cae6 } 
	</style>
	<path id="Aquaduct" class="s0" d="m216 268c196.02 0 392.04 0 594 0 9.35 22.2 9.35 22.2 12 29.88q0.44 1.23 0.9 2.5c1.39 3.98 2.52 7.34 2.1 11.62q-1.46 0.16-2.97 0.33c-33.77 3.91-65.94 15.19-88.02 42.36-9.34 11.99-15.78 24.75-20.01 39.31q-0.38 1.28-0.77 2.59c-2.65 10.03-2.71 19.74-2.74 30.05q-0.03 2.8-0.06 5.6-0.06 7.3-0.1 14.59-0.05 7.47-0.12 14.95-0.13 14.61-0.21 29.22-0.85 0.08-1.72 0.17-3.92 0.38-7.83 0.76c-1.34 0.13-1.34 0.13-2.71 0.27-7.19 0.71-14.26 1.69-21.37 2.99q-1.75 0.32-3.55 0.64c-19.15 3.61-37.72 9.15-56.08 15.64-1.74 0.53-1.74 0.53-3.74 0.53q0-0.82 0-1.67-0.06-20.24-0.18-40.48-0.07-9.78-0.09-19.57-0.03-9.46-0.1-18.93-0.02-3.59-0.02-7.18c-0.02-31.33-7.93-58.44-30.36-81.36-18.86-18.63-44.08-28.31-70.38-29.19-25.99 0.49-49.31 11.58-67.87 29.38-1.07 0.99-1.07 0.99-2.15 2-18.35 17.5-28.27 43.21-29.06 68.27-0.14 6.28-0.17 12.56-0.2 18.85q-0.03 3.46-0.06 6.93-0.08 9.06-0.13 18.12-0.06 9.27-0.14 18.54-0.15 18.15-0.26 36.29-2.16-0.23-4.32-0.46-1.2-0.13-2.43-0.26c-2.64-0.33-5.09-0.93-7.64-1.7q-1.41-0.42-2.87-0.85-1.47-0.45-2.99-0.92-3.21-0.95-6.41-1.9-4.58-1.38-9.14-2.76c-17.59-5.33-35.16-8.94-53.48-10.56-5.63-0.5-5.63-0.5-6.72-1.59q-0.15-3.68-0.14-7.36-0.01-1.15-0.01-2.33-0.01-2.53-0.02-5.05-0.01-4.02-0.04-8.04-0.09-11.44-0.12-22.88-0.01-7-0.08-13.99-0.02-2.65-0.01-5.29c0.02-18.42-3.27-34.57-11.58-51.06q-0.45-0.9-0.91-1.83c-13.43-26.63-37.33-43.87-65-53.57-12.36-4.07-25.24-5.77-38.09-7.6 1.96-8.78 4.71-17.02 8-25.37q0.65-1.7 1.33-3.45c2.03-5.22 4.16-10.15 6.67-15.18z"/>
	<path id="Circle Border" class="s1" d="m598 33q1.32 0.29 2.68 0.58c52.71 11.79 104.32 36.55 146.32 70.42q1.42 1.13 2.88 2.3c5.33 4.3 10.49 8.74 15.54 13.36q3.13 2.82 6.32 5.57c4.58 3.99 8.9 8.22 13.2 12.52q1.18 1.19 2.4 2.41c4.84 4.88 9.38 9.81 13.61 15.23 1.92 2.44 3.92 4.79 5.97 7.13 6.99 8.05 13.11 16.65 19.08 25.48 0.6 0.88 0.6 0.88 1.21 1.78 37.1 55.14 58.03 118.27 63.79 184.22q0.14 1.46 0.29 2.97c0.77 8.19 0.95 16.36 0.96 24.59 0 1.1 0 1.1 0 2.21-0.08 55.67-10.82 111.98-35.25 162.23q-0.49 1.02-0.99 2.07c-8.16 16.99-17.17 33.49-28.01 48.93q-0.61 0.87-1.23 1.77c-20.72 29.82-45.18 57.73-73.77 80.23q-1.92 1.55-3.84 3.1c-22.57 18.07-47.16 33.47-73.23 45.97q-2.93 1.42-5.85 2.88c-19.54 9.61-40.1 16.36-61.08 22.05q-1.24 0.35-2.53 0.7c-46.78 12.93-97.47 15.27-145.47 8.3q-1.51-0.21-3.08-0.42c-35.51-4.95-69.26-16.03-101.92-30.58q-1.19-0.52-2.41-1.06c-19.61-8.63-38.06-19.67-55.59-31.94q-1.13-0.78-2.29-1.59c-10.42-7.27-20.22-14.98-29.71-23.41q-2.12-1.85-4.25-3.69-1.88-1.65-3.75-3.31-1.04-0.9-2.11-1.82c-11.44-10.07-22.59-20.78-32-32.79-1.81-2.29-3.72-4.43-5.7-6.58-13.72-15.3-24.96-33.04-35.19-50.81q-0.67-1.16-1.37-2.35c-26.11-45.26-41.82-97.64-46.63-149.65-0.13-1.38-0.13-1.38-0.26-2.79-0.91-10.98-0.94-21.95-0.93-32.96q0-1.49 0-3.02c0.03-15.49 0.32-30.83 2.19-46.23q0.18-1.53 0.37-3.1c5-39.48 16.43-78.03 33.63-113.9q0.55-1.16 1.12-2.35 2.88-5.98 5.95-11.86 1.4-2.7 2.78-5.43c11.15-21.72 25.4-41.74 41.15-60.36q1.17-1.44 2.37-2.93c6.76-8.25 14.18-15.83 21.69-23.38q0.76-0.77 1.54-1.55c6.79-6.86 13.84-13.12 21.4-19.14q1.54-1.29 3.07-2.61c42.22-36.21 94.97-62.29 148.93-75.39q1.3-0.33 2.63-0.66c57.08-14.3 118.03-14.13 175.37-1.34zm-278 78q-0.99 0.67-2 1.37c-12.74 8.75-25.16 17.87-36.52 28.36q-3.03 2.76-6.15 5.43c-12.07 10.54-23.57 22.12-33.33 34.84q-1.36 1.67-2.73 3.32c-12.69 15.4-23.36 31.86-32.97 49.33q-1.7 3.06-3.44 6.1c-27.26 48.81-40.42 106.98-40.11 162.56q0 1.47 0.01 2.99c0.31 83.88 29.13 164.02 83.99 227.64q0.77 0.9 1.57 1.82c3.22 3.7 6.57 7.2 10.08 10.62 1.61 1.63 3.08 3.34 4.54 5.12 2.75 3.28 5.81 5.99 9.07 8.76 1.87 1.63 3.58 3.33 5.3 5.12 4.56 4.61 9.61 8.6 14.69 12.62q0.99 0.79 2.02 1.61c10.01 7.98 20.15 15.56 30.98 22.39q0.85 0.54 1.73 1.1c11.68 7.38 23.96 13.66 36.27 19.9q1.1 0.57 2.24 1.15c20.09 10.28 41.98 17.15 63.76 22.85q1.27 0.35 2.57 0.71c8.67 2.32 17.43 3.69 26.28 5.02q3.87 0.59 7.73 1.2c15.52 2.39 30.73 3.28 46.42 3.26q1.29 0 2.62 0c12.91-0.03 25.59-0.39 38.38-2.19q1.46-0.19 2.96-0.39c59.87-7.99 116.88-29.83 165.04-66.61q1.76-1.32 3.53-2.64c18.91-14.24 37.17-30.25 52.47-48.36q1.21-1.39 2.45-2.82c27.29-31.57 48.35-67.95 62.55-107.18q0.53-1.44 1.07-2.93c8.56-23.79 13.59-48.05 16.93-73.07 0.27-1.77 0.27-1.77 0.54-3.58 1.74-12.52 1.8-25 1.78-37.63q0-5.54 0.04-11.07c0.04-16.1-1.07-31.78-3.36-47.72q-0.15-1.08-0.31-2.19-0.81-5.58-1.88-11.12-0.31-1.64-0.63-3.33c-10.23-51.63-32.51-101.94-65.18-143.36-1.21-1.54-1.21-1.54-2.45-3.11q-3.23-3.99-6.55-7.89-1.22-1.49-2.48-3.04c-6.3-7.64-13.1-14.75-20.08-21.77q-1.29-1.3-2.61-2.64c-5.97-5.94-12.26-11.29-18.83-16.55q-1.54-1.29-3.07-2.61c-13.94-11.96-29.06-22.17-44.93-31.39q-1.1-0.64-2.23-1.3c-42.68-24.67-91.09-40.57-140.33-44.39q-1.18-0.09-2.4-0.19c-78.77-6.15-159.31 10.55-225.04 55.88z"/>
	<path id="Lake Water Bottom" class="s2" d="m315.97 587.7q3 0.43 6 0.78c22.17 2.93 43.89 10.85 65.22 17.35q1.38 0.42 2.81 0.86 1.38 0.42 2.81 0.85c13.97 4.26 27.93 8.29 42.19 11.46q1.2 0.27 2.43 0.56c5.83 1.31 11.68 2.41 17.57 3.44q1.47 0.27 2.98 0.56c17.52 3.18 34.74 3.82 52.52 3.81q1.57 0.01 3.18 0.01c19.52 0 38.84-1.06 58.01-4.94q0.95-0.19 1.93-0.39c26.62-5.33 52.56-12.8 78.4-21.09 15.97-5.11 32.01-9.64 48.6-12.21q1.45-0.24 2.95-0.48c11-1.78 21.71-2.46 32.87-2.46 0.98 0 0.98 0 1.99 0 14.41 0.02 28.49 0.96 42.57 4.19-2.34 4.12-5.07 7.85-8 11.56q-0.72 0.91-1.45 1.85c-4.14 5.19-8.54 10.09-13.07 14.93q-3.01 3.23-5.86 6.6c-7.51 8.65-15.87 16.67-24.62 24.06q-1.52 1.33-3.04 2.66c-45.77 40.09-101.72 66.34-161.96 75.34q-1.36 0.2-2.76 0.42c-15.73 2.31-31.16 3.07-47.05 2.95q-1.7 0-3.44-0.01c-16.74-0.07-33.23-0.45-49.75-3.36-1.49-0.26-1.49-0.26-3-0.52-53.64-9.6-104.49-32.37-147-66.48q-0.8-0.64-1.63-1.29c-6.69-5.32-13.05-10.95-19.37-16.71q-1.25-1.11-2.53-2.25c-11.03-9.81-20.72-20.33-30.03-31.75-0.82-1-0.82-1-1.65-2.01q-4.16-5.13-8.19-10.37-0.75-0.96-1.51-1.96c-1.09-1.66-1.09-1.66-1.09-3.66 23.25-5.52 48.39-5.84 71.97-2.3z"/>
	<path id="Lake Water Top" class="s3" d="m335 511q1.14 0.19 2.32 0.39c17.97 3.18 35.56 9.29 53.03 14.5 22.62 6.73 45.3 12.54 68.65 16.11q1.36 0.22 2.77 0.44c61.71 9.7 123.41-1.33 182.23-20.44 14.82-4.8 29.54-8.47 44.88-11.19q1.4-0.25 2.84-0.5c12.44-2.13 24.63-2.47 37.23-2.44q4.17 0.01 8.34-0.01c14.42 0 28.58 0.53 42.84 2.89q1.57 0.26 3.2 0.52c25.77 4.34 25.77 4.34 35.67 8.73-2 6.47-4.46 12.58-7.38 18.69q-0.63 1.32-1.28 2.69c-5.13 10.57-11.2 20.61-17.34 30.62-5.87-0.43-11.7-0.92-17.52-1.75-41.13-5.81-80.92-1.68-120.48 10.75-22.48 6.91-45.03 12.97-68 18q-1.67 0.37-3.4 0.76c-27.81 6.16-57.11 9.6-85.6 8.24q-1.33-0.06-2.69-0.12c-27.35-1.36-54.89-6.93-81.31-13.88q-1.69-0.43-3.42-0.88c-16.31-4.2-32.49-8.77-48.61-13.62-12.81-3.84-25.61-7.5-38.91-9.19q-1.27-0.17-2.59-0.35-3.73-0.51-7.47-0.96-0.99-0.12-2.01-0.25c-5.14-0.62-10.21-0.93-15.38-0.99q-1.16-0.01-2.35-0.03-3.75-0.03-7.51-0.04-1.28-0.01-2.59-0.02c-15.16-0.03-29.63 1.34-44.55 4.08-2.9 0.28-4.85 0.24-7.61-0.75-1.63-2.05-1.63-2.05-3.05-4.75q-0.79-1.48-1.61-3.01-0.81-1.6-1.65-3.24-0.85-1.62-1.73-3.29-2.51-4.84-4.96-9.71-0.66-1.3-1.33-2.64c-3.93-7.89-7.64-15.74-9.67-24.36 12.2-3.86 24.39-6.84 37-9q1.26-0.23 2.57-0.46c28.59-4.98 59.86-4.41 88.43 0.46z"/>
	<path id="Channel Water" class="s4" d="m568.15 192.91c35.47 13.55 66.08 12.35 101.08-2.04q1.29-0.53 2.61-1.07 2.43-1 4.83-2.05c11.49-4.8 23.2-6.32 35.58-6.25 1.89 0.01 1.89 0.01 3.82 0.02 22.73 0.42 42.21 9.29 58.21 25.59 2.82 3.1 5.22 6.44 7.59 9.89q0.76 1.09 1.55 2.21 5.14 7.47 9.83 15.23 0.57 0.94 1.16 1.91c2.59 4.39 2.59 4.39 2.59 6.65-187.44 0-374.88 0-568 0 1.49-4.48 2.46-7.07 4.94-10.79q0.87-1.3 1.76-2.65 0.92-1.35 1.86-2.75c0.95-1.4 0.95-1.4 1.92-2.84 13.96-20.49 30.47-36.79 55.71-41.58 5.24-0.72 10.47-0.68 15.75-0.64q1.64-0.01 3.34-0.02c10.29 0.02 19.84 1.82 29.72 4.58q1.17 0.33 2.37 0.66c5.08 1.46 9.71 3.32 14.46 5.64 4.47 1.96 9.05 3.52 13.67 5.08q1.29 0.44 2.63 0.9c10.35 3.43 20.23 4.78 31.12 4.72q1.64 0 3.32-0.01c15.9-0.23 30.2-4.54 44.86-10.48 38.17-15.46 73.22-14.77 111.72 0.09z"/>
	<path id="KALMM CONSULTING" class="s1" aria-label="KALMM
CONSULTING"  d="m249.5 928v-91.1h23.5v33.2l33.8-33.2h27.3l-43.9 43.1 48.4 48h-29.4l-36.2-35.9v35.9zm163 0l-5.7-16.6h-36.8l-5.8 16.6h-23.6l33.8-91.1h28l33.7 91.1zm-24.1-69.8l-12.5 36.3h25zm65 69.8v-91.2h23.5v73.4h41.3v17.8zm84 0v-91.2h29.9l20.8 48.8 20.8-48.8h29.9v91.2h-22.2v-66.7l-21 49.1h-14.9l-21-49.1v66.7zm130 0v-91.2h29.9l20.7 48.8 20.9-48.8h29.9v91.2h-22.3v-66.7l-21 49.1h-14.8l-21-49.1v66.7zm-319.4 45.4v6.8q-2.3 1.2-4.8 1.8-2.6 0.6-5.3 0.6-8.2 0-13-4.6-4.8-4.6-4.8-12.4 0-7.9 4.8-12.5 4.8-4.5 13-4.5 2.7 0 5.3 0.6 2.5 0.6 4.8 1.8v6.8q-2.3-1.6-4.6-2.4-2.3-0.7-4.8-0.7-4.5 0-7.1 2.9-2.6 2.9-2.6 8 0 5.1 2.6 8 2.6 2.9 7.1 2.9 2.5 0 4.8-0.8 2.3-0.7 4.6-2.3zm29-18.7q-3.9 0-6 2.8-2.1 2.9-2.1 8.1 0 5.1 2.1 8 2.1 2.9 6 2.9 3.9 0 6-2.9 2.2-2.9 2.2-8 0-5.2-2.2-8.1-2.1-2.8-6-2.8zm0-6.1q7.9 0 12.4 4.5 4.5 4.5 4.5 12.5 0 7.9-4.5 12.5-4.5 4.5-12.4 4.5-7.9 0-12.4-4.5-4.5-4.6-4.5-12.5 0-8 4.5-12.5 4.5-4.5 12.4-4.5zm30 33.4v-32.9h9.5l11.9 22.5v-22.5h8v32.9h-9.4l-12-22.5v22.5zm66.9-31.8v6.9q-2.7-1.2-5.3-1.8-2.6-0.6-4.9-0.6-3 0-4.4 0.8-1.5 0.9-1.5 2.6 0 1.3 1 2.1 1 0.7 3.5 1.2l3.6 0.8q5.5 1.1 7.8 3.3 2.3 2.2 2.3 6.4 0 5.4-3.2 8.1-3.2 2.6-9.8 2.6-3.2 0-6.3-0.6-3.1-0.6-6.3-1.8v-7.1q3.2 1.7 6.1 2.5 2.9 0.9 5.7 0.9 2.7 0 4.2-1 1.5-0.9 1.5-2.6 0-1.5-1-2.4-1-0.8-4-1.5l-3.3-0.7q-4.9-1-7.2-3.4-2.3-2.3-2.3-6.2 0-4.9 3.2-7.5 3.2-2.6 9.1-2.6 2.7 0 5.6 0.4 2.8 0.4 5.9 1.2zm16.1 18.6v-19.7h8.5v19.7q0 4.1 1.3 5.8 1.4 1.8 4.4 1.8 3 0 4.3-1.8 1.4-1.7 1.4-5.8v-19.7h8.4v19.7q0 7-3.5 10.4-3.5 3.4-10.6 3.4-7.2 0-10.7-3.4-3.5-3.4-3.5-10.4zm44 13.2v-32.9h8.5v26.5h14.8v6.4zm24.1-26.5v-6.4h30.3v6.4h-10.9v26.5h-8.5v-26.5zm40.9 26.5v-32.9h8.5v32.9zm24 0v-32.9h9.5l11.9 22.5v-22.5h8v32.9h-9.4l-12-22.5v22.5zm73.5-18.3v15.8q-3.2 1.6-6.6 2.3-3.4 0.8-7 0.8-8.2 0-13-4.6-4.8-4.6-4.8-12.4 0-7.9 4.9-12.5 4.9-4.5 13.4-4.5 3.2 0 6.2 0.6 3 0.6 5.7 1.8v6.8q-2.7-1.6-5.5-2.3-2.7-0.8-5.4-0.8-5 0-7.8 2.8-2.7 2.8-2.7 8.1 0 5.2 2.6 8 2.7 2.9 7.5 2.9 1.3 0 2.4-0.2 1.2-0.2 2.1-0.5v-6.4h-5.2v-5.7z"/>
</svg>